<svg width="211" height="25" viewBox="0 0 211 25" fill="none" xmlns="http://www.w3.org/2000/svg">
<path d="M5.39797 24H0.800989L9.17074 0.225718H14.4875L22.8688 24H18.2718L11.922 5.1013H11.7362L5.39797 24ZM5.54888 14.6783H18.0861V18.1377H5.54888V14.6783ZM25.4876 24V6.16929H29.5622V9.14107H29.7479C30.073 8.11178 30.6302 7.31853 31.4195 6.76132C32.2167 6.19638 33.126 5.9139 34.1476 5.9139C34.3797 5.9139 34.639 5.92551 34.9253 5.94873C35.2194 5.9642 35.4632 5.99129 35.6567 6.02999V9.89563C35.4787 9.83372 35.1962 9.77954 34.8092 9.73311C34.43 9.67894 34.0624 9.65185 33.7064 9.65185C32.9403 9.65185 32.2515 9.81824 31.6401 10.151C31.0365 10.4761 30.5605 10.9288 30.2123 11.5092C29.864 12.0896 29.6899 12.7591 29.6899 13.5175V24H25.4876ZM45.1651 24.3483C43.3851 24.3483 41.8567 23.9574 40.5797 23.1758C39.3105 22.3942 38.3315 21.3146 37.6428 19.937C36.9617 18.5517 36.6212 16.9575 36.6212 15.1543C36.6212 13.3434 36.9695 11.7453 37.666 10.36C38.3625 8.96695 39.3454 7.88348 40.6146 7.10958C41.8915 6.32794 43.4006 5.93712 45.1419 5.93712C46.5891 5.93712 47.8699 6.20411 48.9843 6.73811C50.1065 7.26436 51.0003 8.01118 51.6659 8.97855C52.3314 9.93819 52.7106 11.0604 52.8035 12.345H48.787C48.6244 11.486 48.2375 10.7701 47.6261 10.1975C47.0225 9.61702 46.2137 9.32681 45.1999 9.32681C44.3409 9.32681 43.5863 9.55898 42.9363 10.0233C42.2862 10.4799 41.7793 11.1377 41.4155 11.9968C41.0595 12.8558 40.8815 13.8851 40.8815 15.0846C40.8815 16.2997 41.0595 17.3444 41.4155 18.2189C41.7715 19.0857 42.2707 19.7551 42.913 20.2272C43.5631 20.6916 44.3254 20.9237 45.1999 20.9237C45.819 20.9237 46.3724 20.8077 46.8599 20.5755C47.3552 20.3356 47.7693 19.9912 48.1021 19.5423C48.4348 19.0935 48.6631 18.5479 48.787 17.9055H52.8035C52.7029 19.167 52.3314 20.2853 51.6891 21.2604C51.0468 22.2278 50.1722 22.9862 49.0656 23.5357C47.9589 24.0774 46.6587 24.3483 45.1651 24.3483ZM63.8211 24.3483C62.0333 24.3483 60.4894 23.9768 59.1893 23.2338C57.8968 22.4832 56.9024 21.4229 56.2059 20.0531C55.5093 18.6756 55.1611 17.0542 55.1611 15.1891C55.1611 13.355 55.5093 11.7453 56.2059 10.36C56.9101 8.96695 57.893 7.88348 59.1544 7.10958C60.4159 6.32794 61.8979 5.93712 63.6005 5.93712C64.6994 5.93712 65.7365 6.11512 66.7116 6.47111C67.6944 6.81937 68.5612 7.3611 69.3119 8.09631C70.0703 8.83151 70.6662 9.76793 71.0996 10.9056C71.533 12.0355 71.7497 13.3821 71.7497 14.9453V16.2339H57.1345V13.4014H67.7215C67.7138 12.5965 67.5397 11.8807 67.1991 11.2538C66.8586 10.6192 66.3827 10.1201 65.7713 9.75633C65.1676 9.39259 64.4634 9.21073 63.6585 9.21073C62.7995 9.21073 62.045 9.41968 61.3949 9.83759C60.7448 10.2478 60.2379 10.7895 59.8742 11.4628C59.5182 12.1283 59.3363 12.8597 59.3286 13.6568V16.1294C59.3286 17.1664 59.5182 18.0564 59.8974 18.7994C60.2766 19.5346 60.8067 20.0995 61.4877 20.4942C62.1688 20.8812 62.9659 21.0746 63.8791 21.0746C64.4905 21.0746 65.0438 20.9895 65.5391 20.8193C66.0344 20.6413 66.4639 20.382 66.8277 20.0415C67.1914 19.701 67.4661 19.2792 67.6519 18.7762L71.5756 19.2173C71.3279 20.2543 70.8558 21.1598 70.1593 21.9337C69.4705 22.6998 68.5883 23.2957 67.5126 23.7214C66.4368 24.1393 65.2063 24.3483 63.8211 24.3483ZM79.1802 0.225718V24H74.9779V0.225718H79.1802ZM90.9523 24.3483C89.211 24.3483 87.7019 23.9652 86.425 23.199C85.148 22.4328 84.1574 21.361 83.4532 19.9834C82.7567 18.6059 82.4084 16.9962 82.4084 15.1543C82.4084 13.3124 82.7567 11.6988 83.4532 10.3135C84.1574 8.92825 85.148 7.85253 86.425 7.08636C87.7019 6.3202 89.211 5.93712 90.9523 5.93712C92.6936 5.93712 94.2027 6.3202 95.4796 7.08636C96.7566 7.85253 97.7433 8.92825 98.4398 10.3135C99.1441 11.6988 99.4962 13.3124 99.4962 15.1543C99.4962 16.9962 99.1441 18.6059 98.4398 19.9834C97.7433 21.361 96.7566 22.4328 95.4796 23.199C94.2027 23.9652 92.6936 24.3483 90.9523 24.3483ZM90.9755 20.9818C91.9197 20.9818 92.7091 20.7225 93.3437 20.204C93.9783 19.6778 94.4503 18.9735 94.7599 18.0913C95.0772 17.209 95.2358 16.2262 95.2358 15.1427C95.2358 14.0515 95.0772 13.0648 94.7599 12.1825C94.4503 11.2925 93.9783 10.5844 93.3437 10.0581C92.7091 9.53189 91.9197 9.26877 90.9755 9.26877C90.0081 9.26877 89.2033 9.53189 88.5609 10.0581C87.9263 10.5844 87.4504 11.2925 87.1331 12.1825C86.8235 13.0648 86.6687 14.0515 86.6687 15.1427C86.6687 16.2262 86.8235 17.209 87.1331 18.0913C87.4504 18.9735 87.9263 19.6778 88.5609 20.204C89.2033 20.7225 90.0081 20.9818 90.9755 20.9818ZM102.736 24V6.16929H106.811V9.14107H106.996C107.321 8.11178 107.879 7.31853 108.668 6.76132C109.465 6.19638 110.374 5.9139 111.396 5.9139C111.628 5.9139 111.887 5.92551 112.174 5.94873C112.468 5.9642 112.712 5.99129 112.905 6.02999V9.89563C112.727 9.83372 112.445 9.77954 112.058 9.73311C111.678 9.67894 111.311 9.65185 110.955 9.65185C110.189 9.65185 109.5 9.81824 108.889 10.151C108.285 10.4761 107.809 10.9288 107.461 11.5092C107.112 12.0896 106.938 12.7591 106.938 13.5175V24H102.736ZM123.871 0.225718H127.308L135.387 19.9602H135.666L143.745 0.225718H147.181V24H144.488V5.93712H144.256L136.827 24H134.226L126.797 5.93712H126.565V24H123.871V0.225718ZM159.731 24.3715C158.013 24.3715 156.531 23.9923 155.285 23.2338C154.047 22.4677 153.091 21.3997 152.418 20.0299C151.752 18.6523 151.42 17.0504 151.42 15.2239C151.42 13.3975 151.752 11.7878 152.418 10.3948C153.091 8.99403 154.028 7.90283 155.227 7.12119C156.434 6.33181 157.843 5.93712 159.453 5.93712C160.381 5.93712 161.298 6.0919 162.204 6.40146C163.109 6.71102 163.934 7.21406 164.676 7.91057C165.419 8.59934 166.011 9.51255 166.453 10.6502C166.894 11.7878 167.114 13.1886 167.114 14.8525V16.0133H153.37V13.6452H164.328C164.328 12.6391 164.127 11.7414 163.725 10.952C163.33 10.1626 162.765 9.53963 162.03 9.08303C161.302 8.62643 160.443 8.39813 159.453 8.39813C158.361 8.39813 157.417 8.66899 156.62 9.21073C155.831 9.74472 155.223 10.4412 154.798 11.3003C154.372 12.1593 154.159 13.0802 154.159 14.0631V15.6419C154.159 16.9884 154.391 18.13 154.856 19.0664C155.328 19.9951 155.982 20.7032 156.817 21.1907C157.653 21.6706 158.625 21.9105 159.731 21.9105C160.451 21.9105 161.101 21.8099 161.681 21.6086C162.27 21.3997 162.777 21.0901 163.202 20.68C163.628 20.2621 163.957 19.7435 164.189 19.1244L166.836 19.8674C166.557 20.7651 166.089 21.5545 165.431 22.2355C164.773 22.9088 163.961 23.4351 162.993 23.8143C162.026 24.1857 160.939 24.3715 159.731 24.3715ZM178.709 6.16929V8.491H169.469V6.16929H178.709ZM172.162 1.89735H174.902V18.8922C174.902 19.6661 175.014 20.2466 175.238 20.6335C175.471 21.0127 175.765 21.2681 176.121 21.3997C176.484 21.5235 176.867 21.5854 177.27 21.5854C177.572 21.5854 177.819 21.5699 178.013 21.539C178.206 21.5003 178.361 21.4693 178.477 21.4461L179.034 23.9071C178.849 23.9768 178.589 24.0464 178.257 24.1161C177.924 24.1935 177.502 24.2322 176.991 24.2322C176.217 24.2322 175.459 24.0658 174.716 23.733C173.981 23.4002 173.369 22.8933 172.882 22.2123C172.402 21.5313 172.162 20.6722 172.162 19.6352V1.89735ZM187.751 24.4179C186.621 24.4179 185.595 24.2051 184.674 23.7794C183.753 23.3461 183.022 22.7231 182.48 21.9105C181.939 21.0901 181.668 20.0995 181.668 18.9387C181.668 17.9171 181.869 17.0891 182.271 16.4545C182.674 15.8121 183.212 15.3091 183.885 14.9453C184.558 14.5816 185.301 14.3107 186.114 14.1327C186.934 13.947 187.758 13.8 188.586 13.6916C189.67 13.5523 190.548 13.4478 191.221 13.3782C191.903 13.3008 192.398 13.1731 192.707 12.9951C193.025 12.8171 193.183 12.5075 193.183 12.0664V11.9736C193.183 10.8282 192.87 9.93819 192.243 9.30359C191.624 8.66899 190.684 8.35169 189.422 8.35169C188.114 8.35169 187.089 8.63804 186.346 9.21073C185.603 9.78341 185.081 10.3948 184.779 11.0449L182.178 10.1162C182.643 9.03273 183.262 8.18917 184.036 7.58553C184.817 6.97415 185.669 6.5485 186.59 6.30859C187.518 6.06094 188.432 5.93712 189.329 5.93712C189.902 5.93712 190.56 6.00677 191.303 6.14607C192.053 6.27763 192.777 6.55237 193.474 6.97028C194.178 7.38819 194.762 8.01892 195.226 8.86247C195.691 9.70602 195.923 10.8359 195.923 12.2522V24H193.183V21.5854H193.044C192.858 21.9724 192.549 22.3864 192.115 22.8275C191.682 23.2687 191.105 23.644 190.386 23.9536C189.666 24.2631 188.788 24.4179 187.751 24.4179ZM188.168 21.9569C189.252 21.9569 190.165 21.7441 190.908 21.3184C191.659 20.8928 192.224 20.3433 192.603 19.67C192.99 18.9967 193.183 18.2886 193.183 17.5457V15.0382C193.067 15.1775 192.812 15.3052 192.417 15.4213C192.03 15.5296 191.581 15.6264 191.071 15.7115C190.568 15.7889 190.076 15.8585 189.596 15.9205C189.124 15.9746 188.741 16.0211 188.447 16.0598C187.735 16.1526 187.07 16.3035 186.45 16.5125C185.839 16.7137 185.344 17.0194 184.964 17.4296C184.593 17.832 184.407 18.3815 184.407 19.078C184.407 20.0299 184.759 20.7496 185.464 21.2372C186.176 21.717 187.077 21.9569 188.168 21.9569ZM203.336 0.225718V24H200.596V0.225718H203.336ZM210.767 0.225718V24H208.027V0.225718H210.767Z" fill="white"/>
</svg>
